<?xml version="1.0" encoding="UTF-8"?>
<svg id="Layer_1" data-name="Layer 1" xmlns="http://www.w3.org/2000/svg" viewBox="0 0 841.89 595.28">
  <defs>
    <style>
      .cls-1 {
        fill: #7f52a1;
      }
    </style>
  </defs>
  <path class="cls-1" d="M747.98,462.33l-71.4-.04.05-16.97.18-158.1-44.43-.27-6.7,1.05-.13-170.2c0-1.84-1-2.92-.37-3.79,1.62-2.22,2.83-.47,4.73-.47l164.1.04c1.81,0,3.25-1.88,5.01-.08,1.04,1.07,1.07,2.54-.13,5.02l.17,168.62-51.11.02.02,175.16Z"/>
  <g>
    <path class="cls-1" d="M393.71,514.44c-3.19,1.79-7.44,3.17-9.36,5.9-1.76,2.51-2.49,4.98-5.31,6.95-2.24,1.57-5.61,1.8-7.98.17-4.72-3.24-4.27-10.66-2.18-13.02,2.28-2.57,9.63-3.09,12.95.87,4.47-4.01,9.6-5.91,14.65-8.71l35.46-19.64,14.1-7.79,22.9-12.79c-2.61-2.88-5.3-1.05-8.09.27l-8.44.62c-3.44.25-6.29,3.06-10.18,2.47-3.52-.53-6.92,2.1-10.06,2.11l-62.69.35c-8.08.05-15.17-.87-23.05-1.93-5.25-.7-9.3.19-14.18-3.14l-10.19-.33c-3.96-2.15-7.39-1.44-11.16-2.05-3.08-.5-1.83-5.44-1.76-7.46l.24-6.9.27-53.64c3.07-3.27,7.06-5.02,11.04-6.89,2.72-1.28,4.78-3.5,7.18-4.9l27.03-15.78,16.63-10.51,42.63-25.44,6.03-3.83,17.42-10.68,24.6-14.38,16.5-10.52,50.6-30.28,18.63-11.42,30.46-18.47,5.98-4.1c6.08-4.18,13.83-7.02,19.37-11.36,1.13-.88,5.45-.92,5.45.54l-.19,87.56c-2.26,6.04-2.7,13.87-5.22,23.88l-2.44,9.73c-.93,3.69-3.57,11.67-4.72,14.24l-10.12,22.5-9.92,17.16c-1.9,3.29-6.19,5.28-6.4,9.86,6.4-2.23,10.86-6.61,16.07-10.16l21.47-14.62,21.82-15.18c5.74-3.99,1.63-7.96,4.84-10.79,1.92-1.69,8.19-1.46,10.03.05,2,1.63,2.45,9.95.44,12.27-2.14,2.47-4.27,1.81-7.59,2.19-5.17.6-9.66,5.03-13.86,7.82l-12.08,8.03-23.16,15.66-13.25,8.94c-3.69,2.49-6.72,5.08-10.53,7.42l-7.45,4.57-24.53,17.73c-.17,2.02-.14,4.66-1.56,5.77-4.9,3.85-8.16-.36-15.63,3.8l-37.92,21.09c-2.52,1.4-4.45,2.52-7.07,3.95l-16.09,8.8c-6.57,3.59-12.64,7.26-19.1,10.76l-19.75,10.69c-2.83,1.53-5.49,2.9-8.31,4.49l-13.25,7.46ZM367.34,466.42c10.14.43,19.86,4.34,39.04,2.02,3.92-.47,6.7-1.83,11.17-2.02l17.84-.75c3.58-.15,7.13-2.76,10.98-1.49,3.23,1.07,6.01-1.96,8.05-2.1,5.54-.38,15.81-3.01,21.31-4.91l19.46-6.73,11.89-5.38c16.4-7.42,8.67-11.49,14.89-14.66,2.39-1.21,5.39-.06,7.65.53,5.24-1.8,9.34-6.14,13.77-9.46,5.42-4.07,10.26-8.15,14.56-13.45l9.92-12.24,14.23-21.82,2.65-7.25c5.75-9.94,9.1-20.16,12.23-31.08.88-3.08,2.72-6.09,2.23-10-.21-1.72,2.74-4.92,2.12-6.85-1.19-3.73,1.2-5.66,2.02-8.37,1.3-4.27.45-8.37.02-13.34-4.32,4.82-12.36,7.78-20.48,12.73l-8.72,5.31c-6.42,3.91-12.96,6.62-19.42,10.52l-6.27,3.78-8.98,5.08-28.82,16.14-15.72,9.05-16.89,9.23c-2.74,1.5-4.92,3.05-7.56,4.54l-23.58,13.27-30.63,17.51-12.23,6.79-22.49,12.7-15.87,9.04-12.77,7.17-21.05,11.93-13.05,8.27,10.32,1.94c3.01.57,5.78,2.77,9.26,1.96,4.09-.95,7.35,1.47,11.06,1.63l17.85.75Z"/>
    <path class="cls-1" d="M37.97,452.46l96.36-64.94,44.14-29.67,23.36-15.89,42.95-28.9,16.76-11.36,18.62-12.47c2.84-1.9,5.19-5.2,9.13-4.69,2.61,5.2,1.1,10.38,1.1,16.04l.04,145.27c0,5.61-.19,10.49.75,16.38H28.83c-1.52.01-2.05-.68-2.2-1.39-.18-.87.67-1.88,1.73-2.27,3.79-1.4,5.93-3.64,9.61-6.12Z"/>
  </g>
</svg>